<svg width="226" height="194" viewBox="0 0 226 194" fill="none" xmlns="http://www.w3.org/2000/svg">
<path d="M47.8438 0.4534C38.8848 0.4534 30.8488 1.87449 25.4246 3.96434C20.0492 6.05418 17.9859 8.3948 17.9859 10.0667C17.9859 11.6968 20.0492 14.0834 25.4246 16.1272C30.8488 18.2171 38.8848 19.68 47.8438 19.68C56.8027 19.68 64.8387 18.2171 70.2141 16.1272C75.6438 14.0834 77.707 11.6968 77.707 10.0667C77.707 8.3948 75.6438 6.05418 70.2141 3.96434C64.8387 1.87449 56.8027 0.4534 47.8438 0.4534ZM134.719 13.8284C125.76 13.8284 117.724 15.2495 112.348 17.3393C106.919 19.4292 104.855 21.7698 104.855 23.4417C104.855 25.0718 106.919 27.4584 112.348 29.5022C117.724 31.5921 125.76 33.0508 134.719 33.0508C137.216 33.0508 139.605 32.9254 141.886 32.7164C144.221 30.4218 147.533 28.3862 151.388 27.032C155.84 25.4855 160.998 24.2316 164.582 23.4417C164.582 21.7698 162.519 19.4292 157.089 17.3393C151.714 15.2495 143.678 13.8284 134.719 13.8284ZM17.9859 21.5148C17.7687 27.6423 26.3911 30.1417 31.8262 31.3789C41.5453 33.5523 54.1422 33.5523 63.8613 31.3789C70.8113 29.8491 77.6527 26.8983 77.707 21.5148C68.9652 25.9579 56.2055 27.1532 47.8438 27.1992C37.2559 26.5179 26.1359 25.6736 17.9859 21.5148ZM178.156 30.2546C169.197 30.2546 161.161 31.6757 155.786 33.8031C150.356 35.8512 148.293 38.2336 148.293 39.8637C148.293 41.5355 150.356 43.8762 155.786 45.966C161.161 48.0559 169.197 49.477 178.156 49.477C187.115 49.477 195.151 48.0559 200.527 45.966C205.956 43.8762 208.02 41.5355 208.02 39.8637C208.02 38.2336 205.956 35.8512 200.527 33.8031C195.151 31.6757 187.115 30.2546 178.156 30.2546ZM104.855 34.8898V35.893C106.43 36.3109 107.95 36.8125 109.362 37.3559C114.249 39.2367 118.484 41.8699 120.656 45.1719C126.194 46.2168 132.438 46.593 138.52 46.3004V40.4906C137.271 40.5324 136.022 40.5742 134.719 40.5742C124.457 40.5742 115.118 39.0277 107.95 36.2691C106.864 35.8512 105.833 35.3914 104.855 34.8898ZM17.9859 34.9316C17.8013 41.034 26.4128 43.5418 31.8262 44.7957C35.5184 45.5898 39.6449 46.1332 43.8801 46.3004C44.966 44.127 46.9207 42.2043 49.4184 40.5742C42.4684 40.6996 35.4641 40.0309 29.1113 38.6516C24.8816 37.6902 21.1351 36.4781 17.9859 34.9316ZM82.5938 40.5742C73.6348 40.5742 65.5988 42.0371 60.2234 44.0852C54.7938 46.175 52.7305 48.5156 52.7305 50.1875C52.7305 51.8594 54.7938 54.2 60.2234 56.2898C65.5988 58.3797 73.6348 59.8008 82.5938 59.8008C91.5527 59.8008 99.5887 58.3797 104.964 56.2898C110.394 54.2 112.457 51.8594 112.457 50.1875C112.457 48.5156 110.394 46.175 104.964 44.0852C99.5887 42.0371 91.5527 40.5742 82.5938 40.5742ZM17.9859 48.3066C17.8013 54.409 26.4128 56.9168 31.8262 58.1707C35.2469 58.9231 39.0477 59.4246 42.957 59.6336V53.8656C38.1789 53.6148 33.5094 52.9879 29.1113 52.0266C24.8816 51.0652 21.1351 49.8531 17.9859 48.3066ZM148.293 51.3578C148.184 57.502 156.655 59.968 162.139 61.2219C171.858 63.3953 184.455 63.3953 194.174 61.2219C201.07 59.6754 207.965 56.7496 208.02 51.3578C207.042 51.8176 206.011 52.2773 204.925 52.6953C197.757 55.4539 188.418 57.0004 178.156 57.0004C167.894 57.0004 158.555 55.4539 151.388 52.6953C150.302 52.2773 149.27 51.8176 148.293 51.3578ZM122.23 53.1133V58.8395C127.334 59.6336 133.036 59.9262 138.52 59.6754V53.9074C133.036 54.1164 127.497 53.8656 122.23 53.1133ZM52.7305 61.6398C52.459 64.1477 53.925 66.1957 55.7168 67.4078C57.9973 68.9125 61.6895 70.459 66.5762 71.5457C76.2953 73.6774 88.8922 73.6774 98.6113 71.5457C103.498 70.459 107.19 68.9125 109.471 67.4078C112.131 65.6941 112.457 64.0223 112.457 61.6398C111.48 62.1414 110.448 62.6012 109.362 63.0191C102.195 65.7777 92.8559 67.3242 82.5938 67.3242C72.3316 67.3242 62.9926 65.7777 55.8254 63.0191C54.7395 62.6012 53.7078 62.1414 52.7305 61.6398ZM17.9859 61.6816C17.8013 67.784 26.4128 70.2918 31.8262 71.5457C35.2469 72.298 39.0477 72.7996 42.957 73.0086V67.2406C38.1789 66.9898 33.5094 66.3629 29.1113 65.4016C24.8816 64.4402 21.1351 63.2281 17.9859 61.6816ZM148.293 64.7328C148.184 70.877 156.655 73.343 162.139 74.5969C171.858 76.7703 184.455 76.7703 194.174 74.5969C201.07 73.0504 207.965 70.1246 208.02 64.7328C204.87 66.2793 201.124 67.4914 196.889 68.4527C185.106 71.0859 171.206 71.0859 159.424 68.4527C155.189 67.4914 151.442 66.2793 148.293 64.7328ZM122.23 66.4883V72.2145C127.334 73.0086 133.036 73.3012 138.52 73.0504V67.2824C133.036 67.4914 127.497 67.2406 122.23 66.4883ZM17.9859 75.0566C17.8013 81.159 26.4128 83.6668 31.8262 84.9207C35.2469 85.673 39.0477 86.1746 42.957 86.3836V80.6156C38.1789 80.3648 33.5094 79.7379 29.1113 78.7766C24.8816 77.8152 21.1351 76.6031 17.9859 75.0566ZM52.7305 75.0566C52.459 77.5645 53.925 79.5707 55.7168 80.7828C57.9973 82.2875 61.6895 83.834 66.5762 84.9207C76.2953 87.0524 88.8922 87.0524 98.6113 84.9207C103.498 83.834 107.19 82.2875 109.471 80.7828C112.131 79.0691 112.457 77.4391 112.457 75.0566C109.308 76.6031 105.561 77.8152 101.326 78.7766C89.5438 81.368 75.6438 81.368 63.8613 78.7766C59.6262 77.8152 55.8797 76.6031 52.7305 75.0566ZM148.293 78.1078C148.184 84.252 156.655 86.718 162.139 87.9719C171.858 90.1453 184.455 90.1453 194.174 87.9719C201.07 86.4254 207.965 83.4996 208.02 78.1078C204.87 79.6543 201.124 80.8664 196.889 81.8277C185.106 84.4609 171.206 84.4609 159.424 81.8277C155.189 80.8664 151.442 79.6543 148.293 78.1078ZM122.23 79.8633V85.5895C127.334 86.3836 133.036 86.6762 138.52 86.4254V80.6574C133.036 80.8664 127.497 80.6156 122.23 79.8633ZM52.7305 88.4316V89.393C54.3051 89.8109 55.8254 90.3125 57.2371 90.8559C62.1238 92.7367 66.359 95.3699 68.5309 98.6719C77.9242 100.427 89.5438 100.302 98.6113 98.2957C103.498 97.209 107.19 95.6625 109.471 94.1578C112.131 92.4441 112.457 90.8141 112.457 88.4316C109.308 89.9781 105.561 91.1902 101.326 92.1516C89.5438 94.743 75.6438 94.743 63.8613 92.1516C59.6262 91.1902 55.8797 89.9781 52.7305 88.4316ZM148.293 91.4828C148.184 97.627 156.655 100.093 162.139 101.347C171.858 103.52 184.455 103.52 194.174 101.347C201.07 99.8004 207.965 96.8746 208.02 91.4828C204.87 93.0293 201.124 94.2414 196.889 95.2027C185.106 97.8359 171.206 97.8359 159.424 95.2027C155.189 94.2414 151.442 93.0293 148.293 91.4828ZM122.23 93.2383V98.9645C127.334 99.7586 133.036 100.051 138.52 99.8004V94.0324C133.036 94.2414 127.497 93.9906 122.23 93.2383ZM30.4688 94.0742C21.5152 94.0742 13.4793 95.5371 8.04958 97.5852C2.67419 99.675 0.610906 102.016 0.610906 103.688C0.610906 105.359 2.67419 107.7 8.04958 109.79C13.4793 111.88 21.5152 113.301 30.4688 113.301C39.4277 113.301 47.4637 111.88 52.8391 109.79C58.2688 107.7 60.332 105.359 60.332 103.688C60.332 102.016 58.2688 99.675 52.8391 97.5852C47.4637 95.5371 39.4277 94.0742 30.4688 94.0742ZM112.457 101.807C109.308 103.353 105.561 104.565 101.326 105.527C91.5527 107.658 80.3676 108.034 70.1055 106.613V112.339C79.2273 113.802 90.0324 113.552 98.6113 111.671C105.453 110.124 112.403 107.157 112.457 101.807ZM148.293 104.858C148.13 110.793 156.275 113.343 161.65 114.596C164.691 112.716 167.46 111.295 170.718 110.25C166.808 109.915 163.007 109.372 159.424 108.578C155.189 107.616 151.442 106.404 148.293 104.858ZM208.02 104.858C206.499 105.61 204.816 106.279 202.97 106.906C204.653 107.031 206.336 107.198 207.911 107.407C208.128 106.571 208.02 105.736 208.02 104.858ZM122.23 106.613V112.298C128.149 113.175 133.09 113.384 138.52 113.217V107.407C133.036 107.616 127.497 107.366 122.23 106.613ZM195.531 114.137C186.572 114.137 178.536 115.6 173.161 117.648C167.731 119.737 165.668 122.078 165.668 123.75C165.668 125.422 167.731 127.762 173.161 129.852C178.536 131.942 186.572 133.363 195.531 133.363C204.49 133.363 212.526 131.942 217.902 129.852C223.331 127.762 225.395 125.422 225.395 123.75C225.395 122.078 223.331 119.737 217.902 117.648C212.526 115.6 204.49 114.137 195.531 114.137ZM0.610906 115.14C0.453445 121.326 8.92376 123.792 14.4566 125.046C24.1758 127.177 36.7672 127.177 46.4863 125.046C53.382 123.499 60.2777 120.532 60.332 115.14C59.3547 115.641 58.3231 116.101 57.2371 116.519C50.0699 119.278 40.7309 120.824 30.4688 120.824C19.8211 120.155 8.81516 119.32 0.610906 115.14ZM112.457 115.182C109.308 116.728 105.561 117.94 101.326 118.902C91.5527 121.033 80.3676 121.409 70.1055 119.988V125.714C79.2273 127.177 90.0324 126.927 98.6113 125.046C105.453 123.499 112.403 120.532 112.457 115.182ZM148.293 118.233C148.076 122.538 152.637 124.962 155.786 126.216C155.786 126.216 155.84 126.258 155.895 126.258V121.075C153.071 120.281 150.519 119.32 148.293 118.233ZM0.610906 128.557C0.426296 134.659 9.03778 137.167 14.4566 138.421C24.1758 140.552 36.7672 140.552 46.4863 138.421C53.3277 136.874 60.2777 133.907 60.332 128.557C57.1828 130.103 53.4363 131.315 49.2012 132.277C37.4188 134.868 23.5242 134.868 11.7418 132.277C7.50661 131.315 3.76012 130.103 0.610906 128.557ZM70.1055 133.363V139.048C72.766 139.507 75.6438 139.8 78.6301 139.967C79.716 137.752 81.6707 135.829 84.1684 134.199C79.4445 134.283 74.6664 133.99 70.1055 133.363ZM117.344 134.199C108.385 134.199 100.349 135.662 94.9734 137.71C89.5438 139.8 87.4805 142.141 87.4805 143.812C87.4805 145.484 89.5438 147.825 94.9734 149.915C100.349 152.005 108.385 153.426 117.344 153.426C126.303 153.426 134.339 152.005 139.714 149.915C145.144 147.825 147.207 145.484 147.207 143.812C147.207 142.141 145.144 139.8 139.714 137.71C134.339 135.662 126.303 134.199 117.344 134.199ZM165.668 135.202C165.614 141.388 173.921 143.854 179.514 145.108C189.233 147.24 201.83 147.24 211.549 145.108C218.445 143.562 225.34 140.594 225.395 135.202C216.816 139.215 203.839 140.845 195.531 140.887C184.889 140.218 173.867 139.382 165.668 135.202ZM0.610906 141.932C0.426296 148.034 9.03778 150.542 14.4566 151.796C24.1758 153.927 36.7672 153.927 46.4863 151.796C53.3277 150.249 60.2777 147.282 60.332 141.932C57.1828 143.478 53.4363 144.69 49.2012 145.652C37.4188 148.243 23.5242 148.243 11.7418 145.652C7.50661 144.69 3.76012 143.478 0.610906 141.932ZM165.668 148.619C165.559 154.763 174.03 157.229 179.514 158.483C189.233 160.615 201.83 160.615 211.549 158.483C218.39 156.937 225.34 153.969 225.395 148.619C222.245 150.166 218.499 151.378 214.264 152.339C202.481 154.93 188.581 154.93 176.799 152.339C172.564 151.378 168.817 150.166 165.668 148.619ZM87.4805 155.265C87.209 157.773 88.675 159.821 90.4668 161.033C92.7473 162.538 96.4395 164.084 101.326 165.171C111.045 167.302 123.642 167.302 133.361 165.171C138.248 164.084 141.94 162.538 144.221 161.033C146.501 159.528 147.207 158.232 147.207 157.188V155.265C146.23 155.766 145.198 156.226 144.112 156.644C136.945 159.403 127.606 160.949 117.344 160.949C107.082 160.949 97.7426 159.403 90.5754 156.644C89.4895 156.226 88.4578 155.766 87.4805 155.265ZM0.610906 155.307C0.426296 161.409 9.03778 163.917 14.4566 165.171C24.1758 167.302 36.7672 167.302 46.4863 165.171C53.3277 163.624 60.2777 160.657 60.332 155.307C57.1828 156.853 53.4363 158.065 49.2012 159.027C37.4188 161.618 23.5242 161.618 11.7418 159.027C7.50661 158.065 3.76012 156.853 0.610906 155.307ZM165.668 161.994C165.559 168.138 174.03 170.604 179.514 171.858C189.233 173.99 201.83 173.99 211.549 171.858C218.39 170.312 225.34 167.344 225.395 161.994C222.245 163.541 218.499 164.753 214.264 165.714C202.481 168.305 188.581 168.305 176.799 165.714C172.564 164.753 168.817 163.541 165.668 161.994ZM0.610906 168.682C0.426296 174.784 9.03778 177.292 14.4566 178.546C24.1758 180.677 36.7672 180.677 46.4863 178.546C53.3277 176.999 60.2777 174.032 60.332 168.682C57.1828 170.228 53.4363 171.44 49.2012 172.402C37.4188 174.993 23.5242 174.993 11.7418 172.402C7.50661 171.44 3.76012 170.228 0.610906 168.682ZM87.4805 168.682C87.2633 172.987 91.8242 175.411 94.9734 176.665C100.349 178.755 108.385 180.176 117.344 180.176C126.303 180.176 134.339 178.755 139.714 176.665C145.089 174.073 147.207 173.07 147.207 168.682C144.058 170.228 140.311 171.44 136.076 172.402C124.294 174.993 110.394 174.993 98.6113 172.402C94.3762 171.44 90.6297 170.228 87.4805 168.682ZM165.668 175.369C165.451 179.674 170.012 182.098 173.161 183.352C178.536 185.442 186.572 186.863 195.531 186.863C204.49 186.863 212.526 185.442 217.902 183.352C223.277 180.761 225.395 179.758 225.395 175.369C222.245 176.916 218.499 178.128 214.264 179.089C202.481 181.68 188.581 181.68 176.799 179.089C172.564 178.128 168.817 176.916 165.668 175.369ZM0.610906 182.057C0.372 186.32 4.8895 188.786 8.04958 190.04C13.4793 192.13 21.5152 193.551 30.4688 193.551C39.4277 193.551 47.4637 192.13 52.8391 190.04C58.2145 187.448 60.332 186.445 60.332 182.057C57.1828 183.603 53.4363 184.815 49.2012 185.777C37.4188 188.368 23.5242 188.368 11.7418 185.777C7.50661 184.815 3.76012 183.603 0.610906 182.057Z" fill="white"/>
</svg>
